<svg xmlns="http://www.w3.org/2000/svg" width="266" height="60" viewBox="0 0 266 60" fill="none">
<path d="M78.104 50.144C77.208 50.112 76.024 50.08 74.552 50.048C73.08 50.048 71.496 50.032 69.8 50C68.136 50 66.456 50 64.76 50C63.096 50 61.624 50 60.344 50C60.376 49.328 60.392 48.432 60.392 47.312C60.424 46.192 60.44 44.912 60.44 43.472C60.44 42.032 60.44 40.48 60.44 38.816C60.44 37.12 60.44 35.376 60.44 33.584C60.44 31.152 60.424 28.72 60.392 26.288C60.392 23.856 60.392 21.6 60.392 19.52C60.392 17.408 60.376 15.584 60.344 14.048C60.344 12.512 60.344 11.424 60.344 10.784C61.592 10.784 62.968 10.784 64.472 10.784C65.976 10.784 67.512 10.784 69.08 10.784C70.648 10.752 72.184 10.72 73.688 10.688C75.192 10.656 76.6 10.624 77.912 10.592C77.912 11.008 77.912 11.376 77.912 11.696C77.944 11.984 77.96 12.4 77.96 12.944C77.96 13.328 77.944 13.792 77.912 14.336C77.912 14.848 77.896 15.392 77.864 15.968C77.864 16.512 77.848 17.072 77.816 17.648C77.816 18.192 77.8 18.704 77.768 19.184H68.12V24.752H76.52V31.904H68.12V37.28H77.912C77.944 38.016 77.976 38.768 78.008 39.536C78.04 40.304 78.056 41.168 78.056 42.128C78.088 43.088 78.104 44.224 78.104 45.536C78.104 46.816 78.104 48.352 78.104 50.144ZM97.9779 10.736H106.138L98.3619 50H86.4579L78.6819 10.736H86.8899L92.4099 40.592L97.9779 10.736ZM105.941 20.48C105.941 18.432 106.325 16.752 107.093 15.44C107.893 14.096 108.885 13.04 110.069 12.272C111.285 11.472 112.613 10.928 114.053 10.64C115.525 10.32 116.933 10.16 118.277 10.16C118.661 10.16 119.141 10.176 119.717 10.208C120.325 10.24 120.949 10.288 121.589 10.352C122.261 10.416 122.933 10.512 123.605 10.64C124.309 10.736 124.965 10.88 125.573 11.072C125.637 11.904 125.685 12.688 125.717 13.424C125.749 14.128 125.765 14.944 125.765 15.872C125.765 16.8 125.749 17.696 125.717 18.56C125.685 19.392 125.637 20.192 125.573 20.96C125.317 20.928 124.981 20.88 124.565 20.816C124.181 20.752 123.765 20.704 123.317 20.672C122.901 20.64 122.469 20.608 122.021 20.576C121.605 20.544 121.205 20.528 120.821 20.528C119.285 20.528 118.165 20.768 117.461 21.248C116.757 21.728 116.405 22.384 116.405 23.216C116.405 23.696 116.517 24.16 116.741 24.608C116.965 25.024 117.253 25.424 117.605 25.808C117.989 26.192 118.405 26.56 118.853 26.912C119.333 27.264 119.813 27.6 120.293 27.92C121.061 28.464 121.829 29.072 122.597 29.744C123.397 30.384 124.117 31.168 124.757 32.096C125.397 32.992 125.925 34.048 126.341 35.264C126.757 36.448 126.965 37.824 126.965 39.392C126.965 41.44 126.613 43.168 125.909 44.576C125.205 45.984 124.293 47.136 123.173 48.032C122.085 48.896 120.853 49.536 119.477 49.952C118.133 50.336 116.789 50.528 115.445 50.528C114.837 50.528 114.085 50.48 113.189 50.384C112.325 50.32 111.445 50.208 110.549 50.048C109.653 49.92 108.805 49.76 108.005 49.568C107.205 49.344 106.565 49.088 106.085 48.8C105.957 48.224 105.845 47.632 105.749 47.024C105.685 46.416 105.653 45.744 105.653 45.008C105.653 44.496 105.669 43.872 105.701 43.136C105.765 42.4 105.829 41.648 105.893 40.88C105.957 40.112 106.021 39.376 106.085 38.672C106.181 37.968 106.261 37.376 106.325 36.896C106.677 37.088 107.189 37.312 107.861 37.568C108.533 37.792 109.253 38.016 110.021 38.24C110.821 38.464 111.621 38.656 112.421 38.816C113.221 38.976 113.925 39.056 114.533 39.056C115.557 39.056 116.325 38.848 116.837 38.432C117.349 37.984 117.605 37.392 117.605 36.656C117.605 35.856 117.317 35.152 116.741 34.544C116.165 33.904 115.445 33.28 114.581 32.672C113.717 32.064 112.773 31.424 111.749 30.752C110.757 30.048 109.829 29.232 108.965 28.304C108.101 27.376 107.381 26.288 106.805 25.04C106.229 23.76 105.941 22.24 105.941 20.48ZM142.707 29.744C142.707 30.416 142.707 31.072 142.707 31.712C142.739 32.352 142.755 32.992 142.755 33.632C142.755 34.272 142.739 34.912 142.707 35.552C142.707 36.16 142.707 36.784 142.707 37.424H128.499C128.435 36.784 128.403 36.144 128.403 35.504C128.403 34.864 128.403 34.224 128.403 33.584C128.403 32.944 128.403 32.304 128.403 31.664C128.403 31.024 128.435 30.384 128.499 29.744H142.707ZM153.535 27.92C154.111 28.08 154.655 28.192 155.167 28.256C155.711 28.288 156.175 28.304 156.559 28.304C157.167 28.304 157.743 28.24 158.287 28.112C158.863 27.952 159.359 27.696 159.775 27.344C160.191 26.992 160.527 26.528 160.783 25.952C161.039 25.344 161.167 24.576 161.167 23.648C161.167 22.688 161.023 21.904 160.735 21.296C160.479 20.656 160.127 20.16 159.679 19.808C159.231 19.456 158.703 19.216 158.095 19.088C157.519 18.96 156.911 18.896 156.271 18.896C155.343 18.896 154.431 18.992 153.535 19.184V27.92ZM145.327 50C145.423 46.96 145.487 43.936 145.519 40.928C145.551 37.888 145.567 35.008 145.567 32.288C145.567 28.416 145.535 24.736 145.471 21.248C145.439 17.76 145.391 14.256 145.327 10.736C146.895 10.576 148.463 10.448 150.031 10.352C151.631 10.224 153.199 10.16 154.735 10.16C156.943 10.16 159.007 10.336 160.927 10.688C162.847 11.04 164.511 11.696 165.919 12.656C167.359 13.584 168.495 14.896 169.327 16.592C170.159 18.256 170.575 20.4 170.575 23.024C170.575 25.456 170.223 27.536 169.519 29.264C168.815 30.96 167.823 32.352 166.543 33.44C165.295 34.496 163.791 35.264 162.031 35.744C160.271 36.224 158.319 36.464 156.175 36.464C155.631 36.464 155.151 36.448 154.735 36.416C154.351 36.384 153.919 36.336 153.439 36.272C153.439 38.576 153.455 40.864 153.487 43.136C153.519 45.408 153.615 47.696 153.775 50H145.327ZM185.389 10.16C190.157 10.16 193.677 11.856 195.949 15.248C198.221 18.64 199.357 23.568 199.357 30.032C199.357 36.592 198.237 41.648 195.997 45.2C193.789 48.752 190.253 50.528 185.389 50.528C182.989 50.528 180.909 50.08 179.149 49.184C177.389 48.256 175.933 46.928 174.781 45.2C173.629 43.44 172.781 41.296 172.237 38.768C171.693 36.208 171.421 33.296 171.421 30.032C171.421 23.472 172.557 18.528 174.829 15.2C177.101 11.84 180.621 10.16 185.389 10.16ZM185.389 38.144C186.413 38.144 187.309 37.92 188.077 37.472C188.877 36.992 189.533 36.352 190.045 35.552C190.557 34.72 190.941 33.744 191.197 32.624C191.453 31.472 191.581 30.208 191.581 28.832C191.581 27.456 191.453 26.192 191.197 25.04C190.941 23.856 190.557 22.832 190.045 21.968C189.533 21.104 188.877 20.432 188.077 19.952C187.309 19.472 186.413 19.232 185.389 19.232C184.365 19.232 183.469 19.488 182.701 20C181.965 20.48 181.325 21.152 180.781 22.016C180.269 22.88 179.885 23.904 179.629 25.088C179.373 26.24 179.245 27.488 179.245 28.832C179.245 30.208 179.373 31.472 179.629 32.624C179.885 33.744 180.269 34.72 180.781 35.552C181.325 36.352 181.965 36.992 182.701 37.472C183.469 37.92 184.365 38.144 185.389 38.144ZM204.33 36.416V28.64C204.33 26.592 204.314 24.848 204.282 23.408C204.282 21.968 204.282 20.64 204.282 19.424H200.73C200.698 18.688 200.666 17.968 200.634 17.264C200.602 16.56 200.586 15.84 200.586 15.104C200.586 14.368 200.602 13.632 200.634 12.896C200.666 12.16 200.698 11.44 200.73 10.736H215.514C215.546 11.472 215.562 12.208 215.562 12.944C215.562 13.648 215.562 14.368 215.562 15.104C215.562 15.84 215.562 16.56 215.562 17.264C215.562 17.968 215.546 18.688 215.514 19.424H212.01C211.946 21.568 211.898 23.68 211.866 25.76C211.866 27.84 211.866 30.16 211.866 32.72V36.416H215.514C215.546 37.568 215.562 38.704 215.562 39.824C215.562 40.944 215.562 42.08 215.562 43.232C215.562 44.352 215.562 45.488 215.562 46.64C215.562 47.76 215.546 48.88 215.514 50H200.73C200.698 48.88 200.666 47.76 200.634 46.64C200.602 45.488 200.586 44.352 200.586 43.232C200.586 42.08 200.602 40.944 200.634 39.824C200.666 38.704 200.698 37.568 200.73 36.416H204.33ZM237.089 10.736H243.953C243.857 17.264 243.809 23.808 243.809 30.368C243.809 36.928 243.857 43.472 243.953 50H234.689L224.513 26.528V50H217.937C218.001 46.704 218.049 43.44 218.081 40.208C218.113 36.944 218.129 33.664 218.129 30.368C218.129 27.072 218.113 23.808 218.081 20.576C218.049 17.312 218.001 14.032 217.937 10.736H227.633L237.089 34.16V10.736ZM264.865 19.616H259.345C259.281 22.464 259.233 25.36 259.201 28.304C259.169 31.216 259.153 34.368 259.153 37.76C259.153 39.936 259.153 41.696 259.153 43.04C259.153 44.352 259.153 45.44 259.153 46.304C259.153 47.136 259.153 47.824 259.153 48.368C259.185 48.88 259.201 49.424 259.201 50H251.137C251.169 48.592 251.201 47.136 251.233 45.632C251.265 44.096 251.281 42.448 251.281 40.688C251.313 38.896 251.329 36.976 251.329 34.928C251.361 32.848 251.377 30.56 251.377 28.064C251.377 26.24 251.377 24.656 251.377 23.312C251.377 21.968 251.361 20.736 251.329 19.616H245.809V10.736H264.865V19.616Z" fill="white"/>
<path d="M49.8945 18.4218L45.8905 14.422C45.5798 14.1112 45.1583 13.9366 44.7187 13.9366C44.2792 13.9366 43.8577 14.1112 43.5469 14.422C43.2362 14.7327 43.0616 15.1542 43.0616 15.5938C43.0616 16.0333 43.2362 16.4548 43.5469 16.7655L47.5468 20.7695C47.8558 21.0789 48.0299 21.4979 48.0312 21.9351V38.7812C48.0312 39.2205 47.8568 39.6418 47.5461 39.9524C47.2355 40.263 46.8143 40.4375 46.375 40.4375C45.9357 40.4375 45.5145 40.263 45.2039 39.9524C44.8932 39.6418 44.7187 39.2205 44.7187 38.7812V30.5C44.7187 29.1822 44.1953 27.9184 43.2634 26.9866C42.3316 26.0547 41.0678 25.5312 39.75 25.5312H36.4375V15.5938C36.4375 14.276 35.914 13.0121 34.9822 12.0803C34.0504 11.1485 32.7865 10.625 31.4687 10.625H14.9062C13.5885 10.625 12.3246 11.1485 11.3928 12.0803C10.461 13.0121 9.9375 14.276 9.9375 15.5938V47.0625H6.625C6.18574 47.0625 5.76446 47.237 5.45385 47.5476C5.14325 47.8582 4.96875 48.2795 4.96875 48.7188C4.96875 49.158 5.14325 49.5793 5.45385 49.8899C5.76446 50.2005 6.18574 50.375 6.625 50.375H39.75C40.1893 50.375 40.6105 50.2005 40.9211 49.8899C41.2318 49.5793 41.4062 49.158 41.4062 48.7188C41.4062 48.2795 41.2318 47.8582 40.9211 47.5476C40.6105 47.237 40.1893 47.0625 39.75 47.0625H36.4375V28.8438H39.75C40.1893 28.8438 40.6105 29.0182 40.9211 29.3289C41.2318 29.6395 41.4062 30.0607 41.4062 30.5V38.7812C41.4062 40.099 41.9297 41.3629 42.8616 42.2947C43.7934 43.2265 45.0572 43.75 46.375 43.75C47.6928 43.75 48.9566 43.2265 49.8884 42.2947C50.8203 41.3629 51.3437 40.099 51.3437 38.7812V21.9351C51.3462 21.2828 51.2194 20.6365 50.9707 20.0334C50.722 19.4304 50.3562 18.8827 49.8945 18.4218ZM28.0382 31.1211L24.7257 39.4023C24.561 39.8103 24.241 40.1361 23.836 40.3081C23.4311 40.4801 22.9744 40.4842 22.5664 40.3195C22.1584 40.1548 21.8326 39.8347 21.6606 39.4298C21.4886 39.0248 21.4845 38.5681 21.6493 38.1602L24.0529 32.1562H19.875C19.6035 32.1567 19.3361 32.0905 19.0963 31.9633C18.8565 31.8362 18.6516 31.652 18.4996 31.4271C18.3477 31.2021 18.2534 30.9433 18.225 30.6733C18.1966 30.4034 18.235 30.1305 18.3368 29.8789L21.6493 21.5977C21.7308 21.3957 21.8514 21.2117 22.004 21.0563C22.1567 20.9009 22.3385 20.777 22.539 20.6919C22.7395 20.6067 22.9548 20.5619 23.1727 20.5599C23.3905 20.558 23.6066 20.5989 23.8086 20.6805C24.0106 20.7621 24.1946 20.8826 24.35 21.0353C24.5054 21.1879 24.6292 21.3697 24.7144 21.5702C24.7995 21.7707 24.8444 21.9861 24.8463 22.2039C24.8483 22.4217 24.8073 22.6378 24.7257 22.8398L22.3221 28.8438H26.5C26.7714 28.8433 27.0389 28.9095 27.2787 29.0367C27.5185 29.1638 27.7234 29.348 27.8753 29.5729C28.0273 29.7979 28.1216 30.0567 28.15 30.3267C28.1784 30.5966 28.14 30.8695 28.0382 31.1211Z" fill="white"/>
</svg>